<?xml version="1.0" standalone="no"?>
<!DOCTYPE svg PUBLIC "-//W3C//DTD SVG 20010904//EN"
 "http://www.w3.org/TR/2001/REC-SVG-20010904/DTD/svg10.dtd">
<svg version="1.0" xmlns="http://www.w3.org/2000/svg"
 width="148.000000pt" height="148.000000pt" viewBox="0 0 148.000000 148.000000"
 preserveAspectRatio="xMidYMid meet">

<g transform="translate(0.000000,148.000000) scale(0.100000,-0.100000)"
fill="#000000" stroke="none">
<path d="M970 1415 c0 -1 31 -23 69 -48 68 -45 153 -138 199 -219 30 -53 6
-49 -39 7 -72 89 -184 162 -294 191 -102 28 -324 11 -371 -27 -6 -5 -44 -25
-85 -45 -193 -96 -332 -331 -332 -559 0 -93 31 -215 74 -285 5 -8 15 -29 23
-46 28 -62 149 -160 279 -226 218 -109 479 -58 667 131 118 119 175 249 201
462 18 148 -14 340 -54 326 -12 -4 -12 -15 -3 -97 3 -25 9 -78 12 -117 6 -69
5 -73 -14 -73 -16 0 -21 9 -26 53 -4 29 -11 59 -16 67 -16 26 -23 2 -11 -44
15 -61 14 -208 -3 -277 -27 -118 -98 -197 -240 -268 -203 -101 -351 -93 -524
29 -139 97 -234 303 -217 468 9 83 60 185 128 254 133 133 370 187 505 113 94
-51 186 -128 207 -172 18 -38 45 -58 45 -33 0 14 -33 83 -47 98 -14 14 -18 42
-6 42 4 0 17 -10 30 -22 13 -12 25 -19 28 -16 13 13 -100 99 -158 120 -42 16
-55 24 -41 26 27 4 145 -49 193 -86 65 -49 101 -72 101 -62 0 5 7 7 15 4 40
-16 -14 112 -81 190 -93 108 -114 125 -174 136 -22 4 -40 6 -40 5z m-793 -646
c2 -46 6 -93 9 -104 3 -11 8 -35 10 -54 10 -72 92 -197 195 -297 76 -73 138
-111 222 -135 26 -7 47 -17 47 -22 0 -5 -12 -6 -27 -2 -16 4 -41 7 -56 6 -36
-2 -141 53 -232 122 -94 71 -146 154 -170 275 -27 139 -33 194 -21 225 9 22 8
30 -4 38 -11 8 -12 12 -2 16 6 2 9 9 6 15 -4 6 -1 9 7 6 9 -3 14 -29 16 -89z
m673 -549 c-8 -5 -17 -7 -19 -4 -3 3 1 9 9 14 8 5 17 7 19 4 3 -3 -1 -9 -9
-14z"/>
</g>
</svg>
